Coordinates
version=1
nRows=4
nColumns=107
inDegrees=yes

Units are S.I. units (second, meters, Newtons, ...)
If the header above contains a line with 'inDegrees', this indicates whether rotational values are in degrees (yes) or radians (no).

endheader
time	sternoclavicular_r2	sternoclavicular_r3	unrotscap_r3	unrotscap_r2	acromioclavicular_r2	acromioclavicular_r3	acromioclavicular_r1	unrothum_r1	unrothum_r3	unrothum_r2	elv_angle	shoulder_elv	shoulder1_r2	shoulder_rot	elbow_flexion	pro_sup	deviation	flexion	proximal_distal_r1	proximal_distal_r3	cmc_flexion	cmc_abduction	mp_flexion	ip_flexion	mcp2_flexion	mcp2_abduction	pm2_flexion	md2_flexion	mcp3_flexion	mcp3_abduction	pm3_flexion	md3_flexion	mcp4_flexion	mcp4_abduction	pm4_flexion	md4_flexion	mcp5_flexion	mcp5_abduction	pm5_flexion	md5_flexion	bicpt_tx	bicpt_ty	bicpt_tz	bicpt2_tx	bicpt2_ty	bicpt2_tz	ptpt_tx	ptpt_ty	ptpt_tz	FCUpt_tx	FCUpt_ty	FCUpt_tz	EDCpt_tx	EDCpt_ty	EDCpt_tz	APLpt_tx	APLpt_ty	APLpt_tz	FPLpt_tx	FPLpt_ty	FPLpt_tz	FPLpt2_tx	FPLpt2_ty	FPLpt2_tz	PEC1pt2_tx	PEC1pt2_ty	PEC1pt2_tz	PEC1pt3_tx	PEC1pt3_ty	PEC1pt3_tz	PEC2pt2_tx	PEC2pt2_ty	PEC2pt2_tz	PEC2pt3_tx	PEC2pt3_ty	PEC2pt3_tz	PEC3pt2_tx	PEC3pt2_ty	PEC3pt2_tz	PEC3pt3_tx	PEC3pt3_ty	PEC3pt3_tz	DELT2pt2a_tx	DELT2pt2a_ty	DELT2pt2a_tz	DELT2pt2_tx	DELT2pt2_ty	DELT2pt2_tz	LAT1pt2_tx	LAT1pt2_ty	LAT1pt2_tz	LAT1pt3_tx	LAT1pt3_ty	LAT1pt3_tz	LAT2pt2_tx	LAT2pt2_ty	LAT2pt2_tz	LAT2pt3_tx	LAT2pt3_ty	LAT2pt3_tz	LAT3pt2_tx	LAT3pt2_ty	LAT3pt2_tz	LAT3pt3_tx	LAT3pt3_ty	LAT3pt3_tz
      1.16666667	     -0.32222699	      0.13648014	     -0.13648014	      0.32222699	     -0.06524441	      0.52728237	      0.23700980	     -0.23700980	     -0.52728237	      0.06524441	     98.58669037	     76.29010343	     -1.72066235	    -22.27793677	     29.00677410	     18.92037389	     -0.00333010	     -0.94014502	     -0.00452806	     -0.47007251	     -7.78948022	     -7.84938054	    -38.03872699	    -54.55420774	     31.24691969	     13.59198249	     10.63565053	    -22.93048425	     48.46129217	      6.13760100	     85.68735136	     70.46717975	     39.27390950	     -5.36309777	    100.59243469	     45.72838398	     20.36898306	    -13.38462741	     -8.12838784	      5.03281914	      0.00085945	     -0.03092462	     -0.00483551	      0.01602675	     -0.01807983	     -0.00940881	      0.00615200	     -0.06580397	     -0.00157414	      0.00572654	     -0.18387048	     -0.00006947	     -0.00227044	      0.00059132	      0.00017734	      0.00022170	      0.00008868	      0.00044340	      0.00028378	      0.00085133	      0.00047887	     -0.00081424	      0.00022844	      0.00027413	      0.00250062	      0.00877337	      0.00610321	     -0.00818000	      0.01975068	     -0.01873347	      0.00250062	      0.00877337	      0.00610321	      0.00055098	      0.01830964	     -0.00962104	      0.00395260	      0.00487876	      0.01597902	      0.00000000	      0.00778387	      0.00000000	     -0.00716280	     -0.03310146	     -0.00641818	      0.01505604	     -0.00050291	     -0.00412922	     -0.00089005	      0.01491897	     -0.00610321	      0.00245824	      0.02153078	     -0.01780104	     -0.00597606	      0.01292695	     -0.00546746	     -0.01246073	      0.02729493	     -0.03055845	     -0.02339565	      0.01445275	     -0.00733233	     -0.01551233	      0.03153327	     -0.03818747
      1.20000000	     -0.32218931	      0.13646418	     -0.13646418	      0.32218931	     -0.06523678	      0.52722071	      0.23698208	     -0.23698208	     -0.52722071	      0.06523678	     98.57307735	     76.28118218	     -1.72042475	    -22.27955058	     28.99471311	     18.92139710	     -0.00332344	     -0.94013862	     -0.00451942	     -0.47006931	     -7.79043444	     -7.84941469	    -38.03923548	    -54.55433391	     31.24893218	     13.59126568	     10.63610757	    -22.93001309	     48.46042784	      6.13767023	     85.68723984	     70.46717847	     39.27378872	     -5.36298662	    100.59274181	     45.72845181	     20.36893801	    -13.38486329	     -8.12850463	      5.03283463	      0.00085906	     -0.03092324	     -0.00483529	      0.01602680	     -0.01807656	     -0.00940872	      0.00615192	     -0.06580402	     -0.00157422	      0.00572664	     -0.18387047	     -0.00006949	     -0.00227056	      0.00059135	      0.00017734	      0.00022170	      0.00008868	      0.00044341	      0.00028378	      0.00085134	      0.00047888	     -0.00081463	      0.00022848	      0.00027417	      0.00250033	      0.00877234	      0.00610250	     -0.00817904	      0.01974837	     -0.01873128	      0.00250033	      0.00877234	      0.00610250	      0.00055092	      0.01830750	     -0.00961991	      0.00395226	      0.00487819	      0.01597820	      0.00000000	      0.00778204	      0.00000000	     -0.00716196	     -0.03309759	     -0.00641666	      0.01505692	     -0.00050296	     -0.00412984	     -0.00088995	      0.01491722	     -0.00610250	      0.00245795	      0.02152826	     -0.01779896	     -0.00597536	      0.01292543	     -0.00546682	     -0.01245927	      0.02729173	     -0.03055488	     -0.02339292	      0.01445106	     -0.00733148	     -0.01551052	      0.03152958	     -0.03818300
      1.23333333	     -0.32210135	      0.13642693	     -0.13642693	      0.32210135	     -0.06521897	      0.52707679	      0.23691739	     -0.23691739	     -0.52707679	      0.06521897	     98.59308273	     76.26035790	     -1.72077391	    -22.45706263	     29.10985000	     20.05657964	      0.01987771	     -0.89403216	      0.02665398	     -0.44701608	     -7.86606429	     -7.83913882	    -38.23620270	    -54.69867167	     31.34292617	     13.53268551	     11.36774958	    -24.56325054	     48.14741361	      6.50241778	     85.69245169	     70.98585028	     39.15858774	     -4.92739190	    100.76515714	     45.76695788	     20.09908671	    -13.36597860	     -7.12860856	      5.06307472	      0.00086286	     -0.03093643	     -0.00483741	      0.01608219	     -0.01810783	     -0.00932019	      0.00606805	     -0.06585826	     -0.00166567	      0.00583374	     -0.18385347	     -0.00009508	     -0.00240678	      0.00063035	      0.00018181	      0.00024536	      0.00009814	      0.00049072	      0.00031406	      0.00094218	      0.00052998	     -0.00082994	      0.00023103	      0.00027723	      0.00249965	      0.00876995	      0.00610083	     -0.00817681	      0.01974298	     -0.01872617	      0.00249965	      0.00876995	      0.00610083	      0.00055077	      0.01830250	     -0.00961729	      0.00395147	      0.00487686	      0.01597627	      0.00000000	      0.00777776	      0.00000000	     -0.00716001	     -0.03308855	     -0.00641311	      0.01515374	     -0.00050857	     -0.00419792	     -0.00088970	      0.01491315	     -0.00610083	      0.00245728	      0.02152239	     -0.01779410	     -0.00597373	      0.01292190	     -0.00546533	     -0.01245587	      0.02728428	     -0.03054654	     -0.02338653	      0.01444711	     -0.00732947	     -0.01550629	      0.03152097	     -0.03817258
      1.26666667	     -0.32235902	      0.13653607	     -0.13653607	      0.32235902	     -0.06527114	      0.52749843	      0.23710691	     -0.23710691	     -0.52749843	      0.06527114	     98.60733165	     76.32136367	     -1.72102260	    -22.33377775	     28.91860068	     20.22917991	      0.02061063	     -0.89451875	      0.02762384	     -0.44725938	     -7.80416932	     -7.80115910	    -38.20299632	    -54.68696388	     31.44270394	     13.41759383	     11.43100456	    -24.53324634	     48.13254050	      6.47169748	     85.67328229	     70.97476071	     39.14218962	     -4.94454190	    100.75223391	     45.76193000	     20.00643518	    -13.35782590	     -7.15866801	      5.05563285	      0.00085654	     -0.03091451	     -0.00483388	      0.01609035	     -0.01805588	     -0.00930657	      0.00605529	     -0.06586650	     -0.00167957	      0.00585006	     -0.18385085	     -0.00009889	     -0.00242750	      0.00063631	      0.00018243	      0.00024512	      0.00009805	      0.00049024	      0.00031375	      0.00094126	      0.00052946	     -0.00081740	      0.00022894	      0.00027473	      0.00250165	      0.00877696	      0.00610571	     -0.00818335	      0.01975877	     -0.01874115	      0.00250165	      0.00877696	      0.00610571	      0.00055121	      0.01831714	     -0.00962498	      0.00395378	      0.00488076	      0.01598190	      0.00000000	      0.00779030	      0.00000000	     -0.00716573	     -0.03311502	     -0.00642352	      0.01508655	     -0.00050467	     -0.00415058	     -0.00089042	      0.01492508	     -0.00610571	      0.00245925	      0.02153960	     -0.01780833	     -0.00597851	      0.01293224	     -0.00546970	     -0.01246583	      0.02730611	     -0.03057097	     -0.02340524	      0.01445867	     -0.00733534	     -0.01551869	      0.03154619	     -0.03820311
